<?xml version="1.0" encoding="utf-8"?>
<!-- Generator: Adobe Illustrator 17.0.2, SVG Export Plug-In . SVG Version: 6.00 Build 0)  -->
<!DOCTYPE svg PUBLIC "-//W3C//DTD SVG 1.1//EN" "http://www.w3.org/Graphics/SVG/1.1/DTD/svg11.dtd">
<svg version="1.1" id="Layer_1" xmlns="http://www.w3.org/2000/svg" xmlns:xlink="http://www.w3.org/1999/xlink" x="0px" y="0px"
	 width="300px" height="100px" viewBox="0 0 300 100" enable-background="new 0 0 300 100" xml:space="preserve">
<g>
	<g>
		<path fill="#0055B8" d="M120.278,76.163h6.585v1.046c0,5.237-0.458,8.776-1.377,10.61c-0.907,1.88-2.601,2.824-5.087,2.824
			c-2.565,0-4.398-1.047-5.488-3.137c-1.079-2.093-1.62-5.605-1.62-10.541c0-5.645,0.591-9.404,1.776-11.274
			c1.115-1.753,2.829-2.631,5.139-2.631c1.766,0,3.144,0.424,4.13,1.272c0.999,0.858,1.776,2.269,2.335,4.234l-3.378,1.411
			c-0.154-0.707-0.322-1.305-0.505-1.783c-0.187-0.484-0.391-0.86-0.611-1.128c-0.442-0.547-1.105-0.819-1.989-0.819
			c-1.206,0-2.032,0.745-2.472,2.229c-0.44,1.561-0.662,4.353-0.662,8.382c0,4.077,0.227,6.836,0.681,8.274
			c0.453,1.442,1.305,2.163,2.561,2.163c1.15,0,1.955-0.511,2.421-1.533c0.476-1.094,0.714-2.849,0.714-5.262v-0.734v-0.538h-3.153
			V76.163z"/>
		<path fill="#0055B8" d="M130.635,60.705h3.329v29.606h-3.329V60.705z"/>
		<path fill="#0055B8" d="M148.398,72.278v18.033h-3.327v-2.317c-0.476,0.987-0.953,1.664-1.431,2.038
			c-0.475,0.372-1.102,0.555-1.878,0.555c-1.502,0-2.598-0.767-3.295-2.296c-0.698-1.535-1.045-3.944-1.045-7.216
			c0-3.125,0.347-5.421,1.045-6.892c0.697-1.467,1.793-2.2,3.295-2.2c1.367,0,2.47,0.775,3.308,2.333v-2.038H148.398z
			 M140.872,81.216c0,2.369,0.155,4.025,0.468,4.964c0.326,0.939,0.897,1.411,1.707,1.411c0.746,0,1.286-0.486,1.622-1.463
			c0.338-1.047,0.507-2.653,0.507-4.829c0-2.181-0.169-3.796-0.507-4.841c-0.336-0.975-0.876-1.465-1.622-1.465
			c-0.786,0-1.35,0.465-1.688,1.398C141.033,77.246,140.872,78.856,140.872,81.216z"/>
		<path fill="#0055B8" d="M159.506,72.65v3.129c-0.814-0.605-1.669-0.906-2.561-0.906c-0.301,0-0.582,0.052-0.838,0.158
			c-0.254,0.104-0.477,0.243-0.67,0.428c-0.192,0.181-0.343,0.395-0.454,0.641c-0.11,0.251-0.165,0.513-0.165,0.793
			c0,0.858,0.779,1.879,2.336,3.063c0.627,0.486,1.15,0.936,1.568,1.36c0.419,0.417,0.738,0.812,0.959,1.179
			c0.451,0.734,0.679,1.656,0.679,2.768c0,1.615-0.472,2.908-1.41,3.881c-0.933,0.966-2.179,1.444-3.747,1.444
			c-0.965,0-1.94-0.283-2.926-0.854v-3.24c0.962,0.721,1.875,1.078,2.734,1.078c1.522,0,2.284-0.748,2.284-2.24
			c0-0.561-0.14-1.043-0.419-1.448c-0.129-0.195-0.332-0.424-0.612-0.685c-0.278-0.262-0.621-0.553-1.026-0.881
			c-1.406-1.091-2.359-2.005-2.86-2.749c-0.487-0.767-0.729-1.689-0.729-2.768c0-1.448,0.447-2.639,1.341-3.565
			c0.904-0.92,2.084-1.377,3.536-1.377C157.547,71.858,158.54,72.12,159.506,72.65z"/>
		<path fill="#0055B8" d="M170.349,72.65v3.129c-0.812-0.605-1.665-0.906-2.561-0.906c-0.301,0-0.581,0.052-0.837,0.158
			c-0.255,0.104-0.477,0.243-0.669,0.428c-0.193,0.181-0.344,0.395-0.453,0.641c-0.112,0.251-0.166,0.513-0.166,0.793
			c0,0.858,0.778,1.879,2.335,3.063c0.627,0.486,1.15,0.936,1.568,1.36c0.419,0.417,0.74,0.812,0.959,1.179
			c0.453,0.734,0.68,1.656,0.68,2.768c0,1.615-0.474,2.908-1.412,3.881c-0.93,0.966-2.177,1.444-3.744,1.444
			c-0.965,0-1.941-0.283-2.929-0.854v-3.24c0.964,0.721,1.874,1.078,2.735,1.078c1.522,0,2.282-0.748,2.282-2.24
			c0-0.561-0.14-1.043-0.42-1.448c-0.127-0.195-0.329-0.424-0.61-0.685c-0.278-0.262-0.621-0.553-1.029-0.881
			c-1.403-1.091-2.357-2.005-2.856-2.749c-0.488-0.767-0.731-1.689-0.731-2.768c0-1.448,0.448-2.639,1.343-3.565
			c0.905-0.92,2.084-1.377,3.535-1.377C168.394,71.858,169.385,72.12,170.349,72.65z"/>
		<path fill="#0055B8" d="M172.605,72.278h3.52l1.01,5.801c0.197,1.166,0.374,2.285,0.533,3.366c0.157,1.078,0.281,2.13,0.374,3.15
			l0.052,0.628l0.07-0.661c0.092-0.835,0.19-1.606,0.29-2.31c0.098-0.701,0.203-1.348,0.32-1.943l0.278-1.373l1.236-6.657h2.424
			l1.169,6.657l0.382,2.088c0.078,0.394,0.155,0.885,0.226,1.471c0.069,0.586,0.14,1.282,0.208,2.082l0.072,0.646
			c0.207-2.161,0.506-4.257,0.89-6.287l1.236-6.657h3.277l-4.236,18.033h-2.299l-1.377-6.884c-0.163-0.837-0.302-1.691-0.417-2.569
			c-0.118-0.878-0.218-1.809-0.297-2.798c-0.012-0.114-0.024-0.253-0.035-0.415c-0.012-0.167-0.029-0.355-0.053-0.576
			c-0.068,1.057-0.167,2.082-0.297,3.073c-0.126,0.993-0.284,1.987-0.469,2.971l-1.393,7.198h-2.302L172.605,72.278z"/>
		<path fill="#0055B8" d="M203.088,81.445c0,6.094-1.889,9.142-5.662,9.142c-3.776,0-5.664-3.096-5.664-9.288
			c0-6.212,1.881-9.317,5.645-9.317c0.976,0,1.82,0.181,2.536,0.557c0.713,0.372,1.303,0.947,1.769,1.724
			c0.465,0.778,0.809,1.757,1.034,2.945C202.974,78.393,203.088,79.803,203.088,81.445z M199.637,81.355
			c0-2.37-0.157-4.02-0.469-4.949c-0.314-0.941-0.87-1.413-1.675-1.413c-0.787,0-1.353,0.465-1.687,1.398
			c-0.314,0.925-0.472,2.546-0.472,4.858c0,2.313,0.157,3.927,0.472,4.845c0.335,0.929,0.9,1.395,1.687,1.395
			c0.791,0,1.342-0.458,1.657-1.376C199.475,85.251,199.637,83.666,199.637,81.355z"/>
		<path fill="#0055B8" d="M206.546,72.278h3.329v2.248c0.568-0.954,1.13-1.621,1.688-2.005c0.56-0.383,1.294-0.605,2.213-0.663
			v3.487c-0.232-0.038-0.429-0.056-0.592-0.056c-1.198,0-2.051,0.31-2.56,0.926c-0.501,0.604-0.749,1.662-0.749,3.169v10.927h-3.329
			V72.278z"/>
		<path fill="#0055B8" d="M216.501,60.705h3.329v19.603l4.234-8.03h3.763l-4.598,8.03l5.207,10.003h-3.904l-4.702-9.585v9.585
			h-3.329V60.705z"/>
		<path fill="#0055B8" d="M238.066,72.65v3.129c-0.814-0.605-1.669-0.906-2.565-0.906c-0.3,0-0.581,0.052-0.834,0.158
			c-0.257,0.104-0.478,0.243-0.672,0.428c-0.19,0.181-0.342,0.395-0.452,0.641c-0.111,0.251-0.163,0.513-0.163,0.793
			c0,0.858,0.777,1.879,2.334,3.063c0.625,0.486,1.148,0.936,1.567,1.36c0.419,0.417,0.737,0.812,0.958,1.179
			c0.452,0.734,0.68,1.656,0.68,2.768c0,1.615-0.472,2.908-1.413,3.881c-0.929,0.966-2.178,1.444-3.745,1.444
			c-0.962,0-1.942-0.283-2.928-0.854v-3.24c0.965,0.721,1.876,1.078,2.736,1.078c1.521,0,2.282-0.748,2.282-2.24
			c0-0.561-0.138-1.043-0.419-1.448c-0.128-0.195-0.332-0.424-0.61-0.685c-0.277-0.262-0.62-0.553-1.027-0.881
			c-1.406-1.091-2.358-2.005-2.859-2.749c-0.486-0.767-0.732-1.689-0.732-2.768c0-1.448,0.447-2.639,1.342-3.565
			c0.906-0.92,2.086-1.377,3.538-1.377C236.105,71.858,237.1,72.12,238.066,72.65z"/>
	</g>
	<g>
		<path fill="#7D868C" d="M9.82,21.605h6.348c4.965,0,7.45,3.085,7.45,9.251c0,2.358-0.322,4.106-0.969,5.248
			c-0.643,1.139-1.785,2.001-3.42,2.587c1.876,0.753,3.16,1.71,3.851,2.882c0.704,1.157,1.059,2.898,1.059,5.223
			c0,6.376-2.733,9.564-8.196,9.564H9.82V21.605z M14.209,36.912c1.826,0,3.091-0.421,3.8-1.261
			c0.708-0.884,1.062-2.436,1.062-4.658c0-3.751-1.357-5.627-4.069-5.627H14.64h-0.205c-0.122,0-0.196,0.007-0.226,0.022V36.912z
			 M14.209,52.357c1.929,0,3.264-0.413,4.003-1.237c0.738-0.826,1.11-2.322,1.11-4.482c0-2.223-0.385-3.774-1.156-4.663
			c-0.754-0.899-2.071-1.348-3.957-1.348V52.357z"/>
		<path fill="#7D868C" d="M27.627,18.116h4.299V56.36h-4.299V18.116z"/>
		<path fill="#7D868C" d="M49.644,44.905c0,7.876-2.44,11.815-7.318,11.815c-4.875,0-7.314-3.999-7.314-11.995
			c0-8.031,2.429-12.042,7.294-12.042c1.258,0,2.351,0.237,3.274,0.719c0.923,0.479,1.684,1.224,2.283,2.227
			c0.601,1.007,1.049,2.274,1.342,3.803C49.497,40.966,49.644,42.79,49.644,44.905z M45.185,44.791c0-3.063-0.201-5.193-0.606-6.39
			c-0.405-1.217-1.126-1.824-2.16-1.824c-1.023,0-1.749,0.601-2.186,1.798c-0.403,1.202-0.605,3.296-0.605,6.28
			c0,2.989,0.202,5.075,0.605,6.258c0.437,1.201,1.163,1.801,2.186,1.801c1.019,0,1.731-0.59,2.138-1.775
			C44.976,49.825,45.185,47.78,45.185,44.791z"/>
		<path fill="#7D868C" d="M50.311,33.064h4.548l1.306,7.496c0.252,1.5,0.485,2.948,0.686,4.344c0.203,1.393,0.365,2.753,0.485,4.072
			l0.066,0.812l0.092-0.855c0.118-1.08,0.244-2.074,0.37-2.981c0.128-0.91,0.265-1.747,0.417-2.51l0.359-1.776l1.6-8.602h3.129
			l1.507,8.602l0.494,2.701c0.107,0.509,0.205,1.143,0.294,1.898c0.09,0.759,0.179,1.655,0.269,2.69l0.09,0.834
			c0.271-2.794,0.652-5.499,1.148-8.123l1.6-8.602h4.231L67.534,56.36h-2.971l-1.78-8.89c-0.21-1.079-0.389-2.189-0.54-3.32
			c-0.151-1.131-0.278-2.337-0.383-3.615c-0.015-0.148-0.03-0.328-0.044-0.538c-0.015-0.21-0.038-0.458-0.068-0.745
			c-0.089,1.367-0.219,2.694-0.384,3.977c-0.163,1.283-0.367,2.561-0.606,3.841l-1.801,9.291h-2.971L50.311,33.064z"/>
		<path fill="#7D868C" d="M85.716,23.157c0.78,0,1.454,0.288,2.025,0.858c0.57,0.571,0.853,1.254,0.853,2.045
			c0,0.811-0.283,1.504-0.853,2.071c-0.571,0.572-1.262,0.855-2.073,0.855c-0.809,0-1.5-0.284-2.071-0.855
			c-0.553-0.553-0.831-1.249-0.831-2.093c0-0.777,0.286-1.452,0.855-2.024C84.236,23.445,84.932,23.157,85.716,23.157z
			 M83.687,33.064h4.324V56.36h-4.324V33.064z"/>
		<path fill="#7D868C" d="M92.851,33.064h4.299v2.679c1.229-2.041,2.82-3.06,4.773-3.06c1.889,0,3.241,0.742,4.052,2.226
			c0.45,0.841,0.675,2.47,0.675,4.884V56.36h-4.301l-0.021-15.575c0-1.577-0.189-2.694-0.562-3.354
			c-0.375-0.66-1.022-0.988-1.938-0.988c-0.494,0-0.912,0.085-1.247,0.255c-0.339,0.173-0.612,0.453-0.822,0.833
			c-0.212,0.384-0.365,0.884-0.462,1.496c-0.098,0.615-0.145,1.374-0.145,2.277V56.36h-4.299V33.064z"/>
		<path fill="#7D868C" d="M119.925,26.537h4.298v6.528h2.34v3.424h-2.34V56.36h-4.298V36.488h-2.366v-3.424h2.366V26.537z"/>
		<path fill="#7D868C" d="M129.647,18.116h4.301v17.628c1.229-2.041,2.819-3.06,4.772-3.06c1.889,0,3.241,0.742,4.051,2.226
			c0.451,0.841,0.676,2.47,0.676,4.884V56.36h-4.301l-0.024-15.575c0-1.577-0.186-2.694-0.56-3.354
			c-0.376-0.66-1.021-0.988-1.937-0.988c-0.494,0-0.912,0.085-1.248,0.255c-0.339,0.173-0.612,0.453-0.822,0.833
			c-0.212,0.384-0.365,0.884-0.462,1.496c-0.098,0.615-0.145,1.374-0.145,2.277V56.36h-4.301V18.116z"/>
		<path fill="#7D868C" d="M157.315,48.506h4.006c-0.315,5.48-2.565,8.215-6.754,8.215c-1.247,0-2.315-0.229-3.208-0.696
			c-0.892-0.465-1.629-1.188-2.217-2.164c-0.583-0.972-1.014-2.211-1.293-3.71c-0.278-1.5-0.415-3.288-0.415-5.359
			c0-4.113,0.575-7.157,1.721-9.14c1.147-1.979,2.923-2.967,5.323-2.967c4.668,0,7.002,4.11,7.002,12.333v0.542h-9.84
			c0,4.983,0.993,7.474,2.975,7.474C156.416,53.032,157.315,51.521,157.315,48.506z M157.088,42.451
			c-0.181-2.443-0.457-4.051-0.831-4.817c-0.391-0.855-1.021-1.283-1.893-1.283c-0.884,0-1.515,0.428-1.889,1.283
			c-0.376,0.767-0.657,2.374-0.836,4.817H157.088z"/>
		<path fill="#7D868C" d="M172.621,21.605h5.762c1.753,0,3.232,0.195,4.434,0.586c1.11,0.376,2.101,1.043,2.972,2.005
			c1.307,1.438,2.236,3.314,2.791,5.624c0.553,2.237,0.832,5.444,0.832,9.612c0,3.83-0.307,6.951-0.921,9.366
			c-0.603,2.311-1.592,4.075-2.972,5.291c-1.695,1.514-4.735,2.271-9.116,2.271h-3.782V21.605z M177.303,52.265
			c2.85,0,4.757-0.861,5.717-2.586c0.991-1.726,1.486-5.083,1.486-10.066c0-5.358-0.472-9.04-1.417-11.053
			c-0.945-2.009-2.68-3.015-5.2-3.015h-0.585V52.265z"/>
		<path fill="#7D868C" d="M206.207,33.064V56.36h-4.3v-2.993c-0.615,1.279-1.231,2.156-1.844,2.636
			c-0.618,0.479-1.428,0.718-2.432,0.718c-1.935,0-3.355-0.987-4.254-2.97c-0.901-1.978-1.353-5.086-1.353-9.32
			c0-4.032,0.452-7.003,1.353-8.901c0.899-1.898,2.319-2.846,4.254-2.846c1.77,0,3.196,1.003,4.276,3.015v-2.634H206.207z
			 M196.482,44.611c0,3.063,0.201,5.2,0.61,6.416c0.419,1.215,1.153,1.823,2.204,1.823c0.959,0,1.658-0.63,2.092-1.89
			c0.437-1.353,0.656-3.432,0.656-6.235c0-2.823-0.219-4.909-0.656-6.258c-0.434-1.261-1.133-1.891-2.092-1.891
			c-1.019,0-1.749,0.601-2.181,1.798C196.691,39.487,196.482,41.566,196.482,44.611z"/>
		<path fill="#7D868C" d="M211.091,33.064h4.299v2.903c0.735-1.231,1.463-2.093,2.183-2.586c0.723-0.498,1.675-0.781,2.86-0.855v4.5
			c-0.3-0.044-0.553-0.07-0.765-0.07c-1.545,0-2.649,0.402-3.308,1.195c-0.646,0.781-0.971,2.148-0.971,4.098V56.36h-4.299V33.064z"
			/>
		<path fill="#7D868C" d="M223.497,18.116h4.298v25.327l5.473-10.378h4.862l-5.94,10.378l6.73,12.917h-5.044l-6.081-12.379V56.36
			h-4.298V18.116z"/>
	</g>
	<path fill="#0055B8" d="M255.612,90.311h8.374c-10.368-22.187-2.82-28.083-1.472-39.427c1.015-8.554-2.491-18.501-6.473-20.463
		c1.062,1.821,2.452,12.148-4.244,26.119C247.158,66.226,245.368,79.593,255.612,90.311z"/>
	<path fill="#4E84CE" d="M281.913,90.311h2.582c12.477-21.295,4.338-57.409-24.275-74.264
		C282.465,36.617,294.574,63.178,281.913,90.311z"/>
	<path fill="#009BDE" d="M263.894,56.393c-2.955,10.713-5.391,20.37,3.093,33.918h11.916c13.997-22.997,3.429-57.295-29.229-78.856
		C257.628,26.017,268.292,40.435,263.894,56.393z"/>
</g>
<g>
</g>
<g>
</g>
<g>
</g>
<g>
</g>
<g>
</g>
<g>
</g>
</svg>
