<svg xmlns="http://www.w3.org/2000/svg" width="300" height="100" viewBox="0 0 300 100"><g fill="#0055B8"><path d="M120.278 76.163h6.585v1.046c0 5.237-.458 8.776-1.377 10.61-.907 1.88-2.601 2.824-5.087 2.824-2.565 0-4.398-1.047-5.488-3.137-1.079-2.093-1.62-5.605-1.62-10.541 0-5.645.591-9.404 1.776-11.274 1.115-1.753 2.829-2.631 5.139-2.631 1.766 0 3.144.424 4.13 1.272.999.858 1.776 2.269 2.335 4.234l-3.378 1.411c-.154-.707-.322-1.305-.505-1.783-.187-.484-.391-.86-.611-1.128-.442-.547-1.105-.819-1.989-.819-1.206 0-2.032.745-2.472 2.229-.44 1.561-.662 4.353-.662 8.382 0 4.077.227 6.836.681 8.274.453 1.442 1.305 2.163 2.561 2.163 1.15 0 1.955-.511 2.421-1.533.476-1.094.714-2.849.714-5.262v-1.272h-3.153v-3.065zM130.635 60.705h3.329v29.606h-3.329v-29.606zM148.398 72.278v18.033h-3.327v-2.317c-.476.987-.953 1.664-1.431 2.038-.475.372-1.102.555-1.878.555-1.502 0-2.598-.767-3.295-2.296-.698-1.535-1.045-3.944-1.045-7.216 0-3.125.347-5.421 1.045-6.892.697-1.467 1.793-2.2 3.295-2.2 1.367 0 2.47.775 3.308 2.333v-2.038h3.328zm-7.526 8.938c0 2.369.155 4.025.468 4.964.326.939.897 1.411 1.707 1.411.746 0 1.286-.486 1.622-1.463.338-1.047.507-2.653.507-4.829 0-2.181-.169-3.796-.507-4.841-.336-.975-.876-1.465-1.622-1.465-.786 0-1.35.465-1.688 1.398-.326.855-.487 2.465-.487 4.825zM159.506 72.65v3.129c-.814-.605-1.669-.906-2.561-.906-.301 0-.582.052-.838.158-.254.104-.477.243-.67.428-.192.181-.343.395-.454.641-.11.251-.165.513-.165.793 0 .858.779 1.879 2.336 3.063.627.486 1.15.936 1.568 1.36.419.417.738.812.959 1.179.451.734.679 1.656.679 2.768 0 1.615-.472 2.908-1.41 3.881-.933.966-2.179 1.444-3.747 1.444-.965 0-1.94-.283-2.926-.854v-3.24c.962.721 1.875 1.078 2.734 1.078 1.522 0 2.284-.748 2.284-2.24 0-.561-.14-1.043-.419-1.448-.129-.195-.332-.424-.612-.685-.278-.262-.621-.553-1.026-.881-1.406-1.091-2.359-2.005-2.86-2.749-.487-.767-.729-1.689-.729-2.768 0-1.448.447-2.639 1.341-3.565.904-.92 2.084-1.377 3.536-1.377 1.021-.001 2.014.261 2.98.791zM170.349 72.65v3.129c-.812-.605-1.665-.906-2.561-.906-.301 0-.581.052-.837.158-.255.104-.477.243-.669.428-.193.181-.344.395-.453.641-.112.251-.166.513-.166.793 0 .858.778 1.879 2.335 3.063.627.486 1.15.936 1.568 1.36.419.417.74.812.959 1.179.453.734.68 1.656.68 2.768 0 1.615-.474 2.908-1.412 3.881-.93.966-2.177 1.444-3.744 1.444-.965 0-1.941-.283-2.929-.854v-3.24c.964.721 1.874 1.078 2.735 1.078 1.522 0 2.282-.748 2.282-2.24 0-.561-.14-1.043-.42-1.448-.127-.195-.329-.424-.61-.685-.278-.262-.621-.553-1.029-.881-1.403-1.091-2.357-2.005-2.856-2.749-.488-.767-.731-1.689-.731-2.768 0-1.448.448-2.639 1.343-3.565.905-.92 2.084-1.377 3.535-1.377 1.025-.001 2.016.261 2.98.791zM172.605 72.278h3.52l1.01 5.801c.197 1.166.374 2.285.533 3.366.157 1.078.281 2.13.374 3.15l.052.628.07-.661c.092-.835.19-1.606.29-2.31.098-.701.203-1.348.32-1.943l.278-1.373 1.236-6.657h2.424l1.169 6.657.382 2.088c.078.394.155.885.226 1.471.069.586.14 1.282.208 2.082l.072.646c.207-2.161.506-4.257.89-6.287l1.236-6.657h3.277l-4.236 18.033h-2.299l-1.377-6.884c-.163-.837-.302-1.691-.417-2.569-.118-.878-.218-1.809-.297-2.798l-.035-.415-.053-.576c-.068 1.057-.167 2.082-.297 3.073-.126.993-.284 1.987-.469 2.971l-1.393 7.198h-2.302l-4.392-18.034zM203.088 81.445c0 6.094-1.889 9.142-5.662 9.142-3.776 0-5.664-3.096-5.664-9.288 0-6.212 1.881-9.317 5.645-9.317.976 0 1.82.181 2.536.557.713.372 1.303.947 1.769 1.724.465.778.809 1.757 1.034 2.945.228 1.185.342 2.595.342 4.237zm-3.451-.09c0-2.37-.157-4.02-.469-4.949-.314-.941-.87-1.413-1.675-1.413-.787 0-1.353.465-1.687 1.398-.314.925-.472 2.546-.472 4.858 0 2.313.157 3.927.472 4.845.335.929.9 1.395 1.687 1.395.791 0 1.342-.458 1.657-1.376.325-.862.487-2.447.487-4.758zM206.546 72.278h3.329v2.248c.568-.954 1.13-1.621 1.688-2.005.56-.383 1.294-.605 2.213-.663v3.487c-.232-.038-.429-.056-.592-.056-1.198 0-2.051.31-2.56.926-.501.604-.749 1.662-.749 3.169v10.927h-3.329v-18.033zM216.501 60.705h3.329v19.603l4.234-8.03h3.763l-4.598 8.03 5.207 10.003h-3.904l-4.702-9.585v9.585h-3.329v-29.606zM238.066 72.65v3.129c-.814-.605-1.669-.906-2.565-.906-.3 0-.581.052-.834.158-.257.104-.478.243-.672.428-.19.181-.342.395-.452.641-.111.251-.163.513-.163.793 0 .858.777 1.879 2.334 3.063.625.486 1.148.936 1.567 1.36.419.417.737.812.958 1.179.452.734.68 1.656.68 2.768 0 1.615-.472 2.908-1.413 3.881-.929.966-2.178 1.444-3.745 1.444-.962 0-1.942-.283-2.928-.854v-3.24c.965.721 1.876 1.078 2.736 1.078 1.521 0 2.282-.748 2.282-2.24 0-.561-.138-1.043-.419-1.448-.128-.195-.332-.424-.61-.685-.277-.262-.62-.553-1.027-.881-1.406-1.091-2.358-2.005-2.859-2.749-.486-.767-.732-1.689-.732-2.768 0-1.448.447-2.639 1.342-3.565.906-.92 2.086-1.377 3.538-1.377 1.021-.001 2.016.261 2.982.791z"/></g><g fill="#7D868C"><path d="M9.82 21.605h6.348c4.965 0 7.45 3.085 7.45 9.251 0 2.358-.322 4.106-.969 5.248-.643 1.139-1.785 2.001-3.42 2.587 1.876.753 3.16 1.71 3.851 2.882.704 1.157 1.059 2.898 1.059 5.223 0 6.376-2.733 9.564-8.196 9.564h-6.123v-34.755zm4.389 15.307c1.826 0 3.091-.421 3.8-1.261.708-.884 1.062-2.436 1.062-4.658 0-3.751-1.357-5.627-4.069-5.627h-.567l-.226.022v11.524zm0 15.445c1.929 0 3.264-.413 4.003-1.237.738-.826 1.11-2.322 1.11-4.482 0-2.223-.385-3.774-1.156-4.663-.754-.899-2.071-1.348-3.957-1.348v11.73zM27.627 18.116h4.299v38.244h-4.299v-38.244zM49.644 44.905c0 7.876-2.44 11.815-7.318 11.815-4.875 0-7.314-3.999-7.314-11.995 0-8.031 2.429-12.042 7.294-12.042 1.258 0 2.351.237 3.274.719.923.479 1.684 1.224 2.283 2.227.601 1.007 1.049 2.274 1.342 3.803.292 1.534.439 3.358.439 5.473zm-4.459-.114c0-3.063-.201-5.193-.606-6.39-.405-1.217-1.126-1.824-2.16-1.824-1.023 0-1.749.601-2.186 1.798-.403 1.202-.605 3.296-.605 6.28 0 2.989.202 5.075.605 6.258.437 1.201 1.163 1.801 2.186 1.801 1.019 0 1.731-.59 2.138-1.775.419-1.114.628-3.159.628-6.148zM50.311 33.064h4.548l1.306 7.496c.252 1.5.485 2.948.686 4.344.203 1.393.365 2.753.485 4.072l.066.812.092-.855c.118-1.08.244-2.074.37-2.981.128-.91.265-1.747.417-2.51l.359-1.776 1.6-8.602h3.129l1.507 8.602.494 2.701c.107.509.205 1.143.294 1.898.09.759.179 1.655.269 2.69l.09.834c.271-2.794.652-5.499 1.148-8.123l1.6-8.602h4.231l-5.468 23.296h-2.971l-1.78-8.89c-.21-1.079-.389-2.189-.54-3.32-.151-1.131-.278-2.337-.383-3.615l-.044-.538-.068-.745c-.089 1.367-.219 2.694-.384 3.977-.163 1.283-.367 2.561-.606 3.841l-1.801 9.291h-2.971l-5.675-23.297zM85.716 23.157c.78 0 1.454.288 2.025.858.57.571.853 1.254.853 2.045 0 .811-.283 1.504-.853 2.071-.571.572-1.262.855-2.073.855-.809 0-1.5-.284-2.071-.855-.553-.553-.831-1.249-.831-2.093 0-.777.286-1.452.855-2.024.615-.569 1.311-.857 2.095-.857zm-2.029 9.907h4.324v23.296h-4.324v-23.296zM92.851 33.064h4.299v2.679c1.229-2.041 2.82-3.06 4.773-3.06 1.889 0 3.241.742 4.052 2.226.45.841.675 2.47.675 4.884v16.567h-4.301l-.021-15.575c0-1.577-.189-2.694-.562-3.354-.375-.66-1.022-.988-1.938-.988-.494 0-.912.085-1.247.255-.339.173-.612.453-.822.833-.212.384-.365.884-.462 1.496-.098.615-.145 1.374-.145 2.277v15.056h-4.299v-23.296zM119.925 26.537h4.298v6.528h2.34v3.424h-2.34v19.871h-4.298v-19.872h-2.366v-3.424h2.366v-6.527zM129.647 18.116h4.301v17.628c1.229-2.041 2.819-3.06 4.772-3.06 1.889 0 3.241.742 4.051 2.226.451.841.676 2.47.676 4.884v16.566h-4.301l-.024-15.575c0-1.577-.186-2.694-.56-3.354-.376-.66-1.021-.988-1.937-.988-.494 0-.912.085-1.248.255-.339.173-.612.453-.822.833-.212.384-.365.884-.462 1.496-.098.615-.145 1.374-.145 2.277v15.056h-4.301v-38.244zM157.315 48.506h4.006c-.315 5.48-2.565 8.215-6.754 8.215-1.247 0-2.315-.229-3.208-.696-.892-.465-1.629-1.188-2.217-2.164-.583-.972-1.014-2.211-1.293-3.71-.278-1.5-.415-3.288-.415-5.359 0-4.113.575-7.157 1.721-9.14 1.147-1.979 2.923-2.967 5.323-2.967 4.668 0 7.002 4.11 7.002 12.333v.542h-9.84c0 4.983.993 7.474 2.975 7.474 1.801-.002 2.7-1.513 2.7-4.528zm-.227-6.055c-.181-2.443-.457-4.051-.831-4.817-.391-.855-1.021-1.283-1.893-1.283-.884 0-1.515.428-1.889 1.283-.376.767-.657 2.374-.836 4.817h5.449zM172.621 21.605h5.762c1.753 0 3.232.195 4.434.586 1.11.376 2.101 1.043 2.972 2.005 1.307 1.438 2.236 3.314 2.791 5.624.553 2.237.832 5.444.832 9.612 0 3.83-.307 6.951-.921 9.366-.603 2.311-1.592 4.075-2.972 5.291-1.695 1.514-4.735 2.271-9.116 2.271h-3.782v-34.755zm4.682 30.66c2.85 0 4.757-.861 5.717-2.586.991-1.726 1.486-5.083 1.486-10.066 0-5.358-.472-9.04-1.417-11.053-.945-2.009-2.68-3.015-5.2-3.015h-.585v26.72zM206.207 33.064v23.296h-4.3v-2.993c-.615 1.279-1.231 2.156-1.844 2.636-.618.479-1.428.718-2.432.718-1.935 0-3.355-.987-4.254-2.97-.901-1.978-1.353-5.086-1.353-9.32 0-4.032.452-7.003 1.353-8.901.899-1.898 2.319-2.846 4.254-2.846 1.77 0 3.196 1.003 4.276 3.015v-2.634h4.3zm-9.725 11.547c0 3.063.201 5.2.61 6.416.419 1.215 1.153 1.823 2.204 1.823.959 0 1.658-.63 2.092-1.89.437-1.353.656-3.432.656-6.235 0-2.823-.219-4.909-.656-6.258-.434-1.261-1.133-1.891-2.092-1.891-1.019 0-1.749.601-2.181 1.798-.424 1.113-.633 3.192-.633 6.237zM211.091 33.064h4.299v2.903c.735-1.231 1.463-2.093 2.183-2.586.723-.498 1.675-.781 2.86-.855v4.5c-.3-.044-.553-.07-.765-.07-1.545 0-2.649.402-3.308 1.195-.646.781-.971 2.148-.971 4.098v14.111h-4.299v-23.296zM223.497 18.116h4.298v25.327l5.473-10.378h4.862l-5.94 10.378 6.73 12.917h-5.044l-6.081-12.379v12.379h-4.298v-38.244z"/></g><path fill="#0055B8" d="M255.612 90.311h8.374c-10.368-22.187-2.82-28.083-1.472-39.427 1.015-8.554-2.491-18.501-6.473-20.463 1.062 1.821 2.452 12.148-4.244 26.119-4.639 9.686-6.429 23.053 3.815 33.771z"/><path fill="#4E84CE" d="M281.913 90.311h2.582c12.477-21.295 4.338-57.409-24.275-74.264 22.245 20.57 34.354 47.131 21.693 74.264z"/><path fill="#009BDE" d="M263.894 56.393c-2.955 10.713-5.391 20.37 3.093 33.918h11.916c13.997-22.997 3.429-57.295-29.229-78.856 7.954 14.562 18.618 28.98 14.22 44.938z"/></svg>